<?xml version="1.0" encoding="UTF-8"?>
<svg width="163.76mm" height="34mm" version="1.1" viewBox="0 0 163.76 34" xml:space="preserve" xmlns="http://www.w3.org/2000/svg" xmlns:cc="http://creativecommons.org/ns#" xmlns:dc="http://purl.org/dc/elements/1.1/" xmlns:rdf="http://www.w3.org/1999/02/22-rdf-syntax-ns#" xmlns:xlink="http://www.w3.org/1999/xlink"><title>Doco CD Logo</title><g transform="translate(63 -30)"><g transform="matrix(1.0231 0 0 1.0231 -1.0675 -2.74)"><path d="m12.727 65.232c6.604 0 11.599-5.08 11.642-11.769v-19.304c0-1.27-0.889-2.159-2.159-2.159s-2.159 0.889-2.159 2.159v11.43c-1.9473-2.3707-4.826-3.8523-8.1703-3.8523-6.1807 0-10.837 5.0377-10.837 11.726 0 6.6887 5.0377 11.769 11.684 11.769zm0-3.81c-4.2757 0-7.5353-3.429-7.5353-7.9587 0-4.5297 3.2597-7.9163 7.5353-7.9163 4.2757 0 7.493 3.3867 7.493 7.9163 0 4.5297-3.2173 7.9587-7.493 7.9587zm26.193 3.81c6.8157 0 11.642-4.8683 11.642-11.726-0.04233-6.9003-4.8683-11.769-11.642-11.769-6.858 0-11.684 4.8683-11.684 11.769 0 6.858 4.826 11.726 11.684 11.726zm0-3.81c-4.4027 0-7.5353-3.2597-7.5353-7.9163 0-4.6567 3.1327-7.9587 7.5353-7.9587 4.4027 0 7.493 3.302 7.493 7.9587 0 4.6567-3.0903 7.9163-7.493 7.9163zm26.051 3.81c3.0903 0 5.6303-0.97367 7.62-2.8363 0.80433-0.762 0.67733-1.8627-0.29633-2.667-0.71967-0.59267-1.778-0.508-2.667 0.21167-1.2277 1.016-2.7093 1.4817-4.6567 1.4817-4.4873 0-7.5353-3.3443-7.5353-7.9163 0-4.7837 2.9633-7.9587 7.3237-7.9587 2.1167 0 3.7253 0.67733 5.1647 2.2013 0.762 0.80433 1.8203 1.016 2.6247 0.46567 1.016-0.71967 1.27-1.778 0.508-2.667-2.2013-2.54-4.953-3.81-8.2973-3.81-6.6887 0-11.472 4.9107-11.472 11.769 0 6.6887 4.8683 11.726 11.684 11.726zm22.918 0c6.8157 0 11.642-4.8683 11.642-11.726-0.04233-6.9003-4.8683-11.769-11.642-11.769-6.858 0-11.684 4.8683-11.684 11.769 0 6.858 4.826 11.726 11.684 11.726zm0-3.81c-4.4027 0-7.5353-3.2597-7.5353-7.9163 0-4.6567 3.1327-7.9587 7.5353-7.9587 4.4027 0 7.493 3.302 7.493 7.9587 0 4.6567-3.0903 7.9163-7.493 7.9163z" fill="#1d63f7" stroke-width=".84138" aria-label="doco "/></g><g transform="translate(-97.975 24)"><rect id="c" x="34.975" y="30" width="10" height="10" rx="1" fill="#1d63f7" stroke-miterlimit="3" stroke-opacity="0"/><use id="b" transform="translate(12)" xlink:href="#c"/><use id="d" transform="translate(24)" xlink:href="#c"/><use id="a" transform="translate(24)" xlink:href="#b"/><use transform="translate(12)" xlink:href="#a"/><use transform="translate(0,-12)" xlink:href="#b"/><use transform="translate(-2.4561e-8 -12)" xlink:href="#d"/><use id="e" transform="translate(2.4561e-8 -12)" xlink:href="#a"/><use transform="translate(2.4561e-8 -12)" xlink:href="#e"/></g></g><metadata><rdf:RDF><cc:Work rdf:about=""><dc:title>Doco CD Logo</dc:title><dc:date>2025-07-14</dc:date><dc:publisher><cc:Agent><dc:title>Kim Oliver Drechsel (https://github.com/kimdre)</dc:title></cc:Agent></dc:publisher><dc:source>https://github.com/kimdre/doco-cd</dc:source><dc:subject><rdf:Bag><rdf:li>Docker Compose Continuous Deployment</rdf:li></rdf:Bag></dc:subject><cc:license rdf:resource="http://creativecommons.org/licenses/by-nd/4.0/"/></cc:Work><cc:License rdf:about="http://creativecommons.org/licenses/by-nd/4.0/"><cc:permits rdf:resource="http://creativecommons.org/ns#Reproduction"/><cc:permits rdf:resource="http://creativecommons.org/ns#Distribution"/><cc:requires rdf:resource="http://creativecommons.org/ns#Notice"/><cc:requires rdf:resource="http://creativecommons.org/ns#Attribution"/></cc:License></rdf:RDF></metadata></svg>
