<?xml version="1.0" encoding="UTF-8" standalone="no"?>
<!-- Created with Inkscape (http://www.inkscape.org/) -->

<svg
   width="163.76486mm"
   height="34.000092mm"
   viewBox="0 0 163.76486 34.000092"
   version="1.1"
   id="svg1"
   xml:space="preserve"
   sodipodi:docname="doco-cd_logo_source.svg"
   inkscape:version="1.4.2 (ebf0e940d0, 2025-05-08)"
   inkscape:export-filename="doco-cd_logo.svg"
   inkscape:export-xdpi="96"
   inkscape:export-ydpi="96"
   xmlns:inkscape="http://www.inkscape.org/namespaces/inkscape"
   xmlns:sodipodi="http://sodipodi.sourceforge.net/DTD/sodipodi-0.dtd"
   xmlns:xlink="http://www.w3.org/1999/xlink"
   xmlns="http://www.w3.org/2000/svg"
   xmlns:svg="http://www.w3.org/2000/svg"
   xmlns:rdf="http://www.w3.org/1999/02/22-rdf-syntax-ns#"
   xmlns:cc="http://creativecommons.org/ns#"
   xmlns:dc="http://purl.org/dc/elements/1.1/"><title
     id="title1">Doco CD Logo</title><sodipodi:namedview
     id="namedview1"
     pagecolor="#ffffff"
     bordercolor="#000000"
     borderopacity="0.25"
     inkscape:showpageshadow="2"
     inkscape:pageopacity="0.0"
     inkscape:pagecheckerboard="0"
     inkscape:deskcolor="#d1d1d1"
     inkscape:document-units="mm"
     showgrid="true"
     inkscape:zoom="3.3777576"
     inkscape:cx="408.99915"
     inkscape:cy="53.585846"
     inkscape:window-width="1920"
     inkscape:window-height="1011"
     inkscape:window-x="1920"
     inkscape:window-y="32"
     inkscape:window-maximized="1"
     inkscape:current-layer="layer1"
     showguides="false"><inkscape:grid
       id="grid4"
       units="mm"
       originx="63.000008"
       originy="-29.999926"
       spacingx="0.99999998"
       spacingy="1"
       empcolor="#0099e5"
       empopacity="0.30196078"
       color="#0099e5"
       opacity="0.14901961"
       empspacing="5"
       enabled="true"
       visible="true" /></sodipodi:namedview><defs
     id="defs1" /><g
     inkscape:label="Ebene 1"
     inkscape:groupmode="layer"
     id="layer1"
     transform="translate(63.000001,-29.999923)"><g
       id="g4"
       inkscape:label="Text"
       transform="matrix(1.023124,0,0,1.023124,-1.0674845,-2.7399674)"><path
         style="font-weight:bold;font-size:42.3333px;line-height:0px;font-family:Comfortaa;-inkscape-font-specification:'Comfortaa Bold';text-align:center;letter-spacing:-2.52415px;baseline-shift:baseline;text-anchor:middle;fill:#1d63f7;stroke-width:0.841384"
         d="m 12.727348,65.231566 c 6.603995,0 11.599325,-5.079996 11.641658,-11.768658 V 34.158923 c 0,-1.269999 -0.888999,-2.158999 -2.158998,-2.158999 -1.269999,0 -2.158998,0.889 -2.158998,2.158999 v 11.429991 c -1.947332,-2.370665 -4.825997,-3.85233 -8.170328,-3.85233 -6.1806621,0 -10.8373252,5.037663 -10.8373252,11.726324 0,6.688662 5.0376628,11.768658 11.6839912,11.768658 z m 0,-3.809997 c -4.2756635,0 -7.5353277,-3.428997 -7.5353277,-7.958661 0,-4.529663 3.2596642,-7.916327 7.5353277,-7.916327 4.275664,0 7.492995,3.386664 7.492995,7.916327 0,4.529664 -3.217331,7.958661 -7.492995,7.958661 z m 26.192834,3.809997 c 6.815661,0 11.641657,-4.86833 11.641657,-11.726324 -0.04233,-6.900329 -4.868329,-11.768658 -11.641657,-11.768658 -6.857995,0 -11.683992,4.868329 -11.683992,11.768658 0,6.857994 4.825997,11.726324 11.683992,11.726324 z m 0,-3.809997 c -4.402664,0 -7.535328,-3.259664 -7.535328,-7.916327 0,-4.656664 3.132664,-7.958661 7.535328,-7.958661 4.402663,0 7.492994,3.301997 7.492994,7.958661 0,4.656663 -3.090331,7.916327 -7.492994,7.916327 z m 26.050796,3.809997 c 3.090331,0 5.630329,-0.973666 7.619994,-2.836331 0.804333,-0.761999 0.677333,-1.862665 -0.296333,-2.666998 -0.719666,-0.592666 -1.777998,-0.508 -2.666998,0.211666 -1.227666,1.016 -2.709331,1.481666 -4.656663,1.481666 -4.48733,0 -7.535328,-3.344331 -7.535328,-7.916327 0,-4.783663 2.963331,-7.958661 7.323662,-7.958661 2.116665,0 3.72533,0.677333 5.164662,2.201332 0.762,0.804332 1.820332,1.015999 2.624665,0.465666 1.015999,-0.719666 1.269999,-1.777999 0.508,-2.666998 -2.201332,-2.539998 -4.952997,-3.809997 -8.297327,-3.809997 -6.688662,0 -11.472325,4.910663 -11.472325,11.768658 0,6.688661 4.868329,11.726324 11.683991,11.726324 z m 22.91816,0 c 6.815661,0 11.641657,-4.86833 11.641657,-11.726324 -0.04233,-6.900329 -4.868329,-11.768658 -11.641657,-11.768658 -6.857995,0 -11.683992,4.868329 -11.683992,11.768658 0,6.857994 4.825997,11.726324 11.683992,11.726324 z m 0,-3.809997 c -4.402664,0 -7.535328,-3.259664 -7.535328,-7.916327 0,-4.656664 3.132664,-7.958661 7.535328,-7.958661 4.402663,0 7.492994,3.301997 7.492994,7.958661 0,4.656663 -3.090331,7.916327 -7.492994,7.916327 z"
         id="text1"
         aria-label="doco "
         sodipodi:nodetypes="scssscssssssssscssssssssscccssscccsssscssssssss"
         inkscape:label="text1" /></g><g
       id="g5"
       transform="translate(-97.974805,24)"
       inkscape:label="Boxes"><rect
         style="fill:#1d63f7;fill-opacity:1;stroke-width:0;stroke-miterlimit:3;stroke-opacity:0"
         id="rect4"
         width="10"
         height="10"
         x="34.974804"
         y="30"
         rx="1" /><use
         x="0"
         y="0"
         xlink:href="#rect4"
         id="use7"
         transform="translate(12)" /><use
         x="0"
         y="0"
         xlink:href="#rect4"
         id="use8"
         transform="translate(24)" /><use
         x="0"
         y="0"
         xlink:href="#use7"
         id="use9"
         transform="translate(24)" /><use
         x="0"
         y="0"
         xlink:href="#use9"
         id="use10"
         transform="translate(12)" /><use
         x="0"
         y="0"
         xlink:href="#use7"
         id="use11"
         transform="translate(0,-12)" /><use
         x="0"
         y="0"
         xlink:href="#use8"
         id="use12"
         transform="translate(-2.4560528e-8,-12)" /><use
         x="0"
         y="0"
         xlink:href="#use9"
         id="use13"
         transform="translate(2.4560556e-8,-12)" /><use
         x="0"
         y="0"
         xlink:href="#use13"
         id="use14"
         transform="translate(2.4560542e-8,-12)" /></g></g><metadata
     id="metadata1"><rdf:RDF><cc:Work
         rdf:about=""><dc:title>Doco CD Logo</dc:title><dc:date>2025-07-14</dc:date><dc:publisher><cc:Agent><dc:title>Kim Oliver Drechsel (https://github.com/kimdre)</dc:title></cc:Agent></dc:publisher><dc:source>https://github.com/kimdre/doco-cd</dc:source><dc:subject><rdf:Bag><rdf:li>Docker Compose Continuous Deployment</rdf:li></rdf:Bag></dc:subject><cc:license
           rdf:resource="http://creativecommons.org/licenses/by-nd/4.0/" /></cc:Work><cc:License
         rdf:about="http://creativecommons.org/licenses/by-nd/4.0/"><cc:permits
           rdf:resource="http://creativecommons.org/ns#Reproduction" /><cc:permits
           rdf:resource="http://creativecommons.org/ns#Distribution" /><cc:requires
           rdf:resource="http://creativecommons.org/ns#Notice" /><cc:requires
           rdf:resource="http://creativecommons.org/ns#Attribution" /></cc:License></rdf:RDF></metadata></svg>
